<?xml version="1.0" encoding="utf-8"?>
<!-- Generator: Adobe Illustrator 21.0.0, SVG Export Plug-In . SVG Version: 6.00 Build 0)  -->
<svg version="1.1" xmlns="http://www.w3.org/2000/svg" xmlns:xlink="http://www.w3.org/1999/xlink" x="0px" y="0px"
	 viewBox="0 0 1648 310.8" style="enable-background:new 0 0 1648 310.8;" xml:space="preserve">
<style type="text/css">
	.st0{opacity:0.76;}
	.st1{fill:#F7F70B;}
	.st2{opacity:0.99;}
	.st3{fill:#091DAF;}
	.st4{fill:#33AF0B;}
	.st5{fill:#E70D00;}
	.st6{fill:none;}
	.st7{font-family:'MyriadPro-Regular';}
	.st8{font-size:169.6768px;}
	.st9{fill:none;stroke:#000000;stroke-width:5;stroke-miterlimit:10;}
	.st10{opacity:0.99;fill:url(#SVGID_1_);}
</style>
<g id="Capa_1">
	<g class="st0">
		<polygon class="st1" points="223.6,197.5 171.4,271.5 14.5,51.6 85.6,1.4 		"/>
	</g>
	<g class="st2">
		<rect x="0" y="0.9" class="st3" width="87" height="269.7"/>
	</g>
	<g class="st0">
		<polygon class="st4" points="121.8,201.9 171.4,271.5 327.4,51.6 256.4,1.4 		"/>
	</g>
	<g class="st2">
		<rect x="256.7" class="st5" width="87" height="269.7"/>
	</g>
	<rect x="366.3" y="147.9" class="st6" width="1087.7" height="127"/>
	<text transform="matrix(1 0 0 1 366.3281 268.3922)" class="st7 st8">arsol del Caribe</text>
	<path class="st9" d="M1238,104h400c0,0-104.7,55.7-187.6,175.7"/>
	<path d="M1184,197"/>
	<linearGradient id="SVGID_1_" gradientUnits="userSpaceOnUse" x1="0" y1="291.9534" x2="1456" y2="291.9534">
		<stop  offset="2.250000e-02" style="stop-color:#FFFFFF"/>
		<stop  offset="0.18" style="stop-color:#FFFFFF"/>
		<stop  offset="1" style="stop-color:#BF0500"/>
	</linearGradient>
	<polyline class="st10" points="1456,275.9 1456,308 0,308 0,275.9 1456,275.9 	"/>
</g>
<g id="Capa_2">
</g>
</svg>
